<svg width="14" height="15" viewBox="0 0 14 15" fill="none" xmlns="http://www.w3.org/2000/svg">
<path d="M9.91666 6.33342H11.0833C12.25 6.33342 12.8333 5.75008 12.8333 4.58341V3.41675C12.8333 2.25008 12.25 1.66675 11.0833 1.66675H9.91666C8.74999 1.66675 8.16666 2.25008 8.16666 3.41675V4.58341C8.16666 5.75008 8.74999 6.33342 9.91666 6.33342Z" stroke="#98949E" stroke-miterlimit="10" stroke-linecap="round" stroke-linejoin="round"/>
<path d="M2.91666 13.3334H4.08332C5.24999 13.3334 5.83332 12.7501 5.83332 11.5834V10.4167C5.83332 9.25008 5.24999 8.66675 4.08332 8.66675H2.91666C1.74999 8.66675 1.16666 9.25008 1.16666 10.4167V11.5834C1.16666 12.7501 1.74999 13.3334 2.91666 13.3334Z" stroke="#98949E" stroke-miterlimit="10" stroke-linecap="round" stroke-linejoin="round"/>
<path opacity="0.34" d="M3.49999 6.33342C4.78865 6.33342 5.83332 5.28875 5.83332 4.00008C5.83332 2.71142 4.78865 1.66675 3.49999 1.66675C2.21133 1.66675 1.16666 2.71142 1.16666 4.00008C1.16666 5.28875 2.21133 6.33342 3.49999 6.33342Z" stroke="#98949E" stroke-miterlimit="10" stroke-linecap="round" stroke-linejoin="round"/>
<path opacity="0.34" d="M10.5 13.3334C11.7887 13.3334 12.8333 12.2887 12.8333 11.0001C12.8333 9.71142 11.7887 8.66675 10.5 8.66675C9.21133 8.66675 8.16666 9.71142 8.16666 11.0001C8.16666 12.2887 9.21133 13.3334 10.5 13.3334Z" stroke="#98949E" stroke-miterlimit="10" stroke-linecap="round" stroke-linejoin="round"/>
</svg>
